<?xml version="1.0" encoding="UTF-8"?>
<svg fill="white" width="1200pt" height="1200pt" version="1.1" viewBox="0 0 1200 1200" xmlns="http://www.w3.org/2000/svg">
 <g fill="white">
  <path 
  fill="white"
  d="m712.82 290.02 80.746-221.83c-30.637-11.16-62.473-19.727-95.305-25.477l-40.992 232.55c19.105 3.3516 37.707 8.2578 55.551 14.762z"/>
  <path fill="white" d="m929.8 600c0 182.14-147.67 329.8-329.8 329.8-182.15 0-329.8-147.67-329.8-329.8 0-182.15 147.66-329.8 329.8-329.8v-236.02c-312.49 0-565.81 253.31-565.81 565.81 0 312.48 253.33 565.81 565.81 565.81s565.81-253.33 565.81-565.81z"/>
  <path fill="white" d="m811.96 347.4 151.74-180.82c-25.164-21.121-52.164-40.117-80.746-56.652l-118.07 204.48c16.656 9.6484 32.426 20.68 47.078 32.988z"/>
  <path fill="white" d="m924.76 542.73 232.55-41.004c-5.7461-32.832-14.328-64.68-25.465-95.293l-221.84 80.734c6.4805 17.848 11.387 36.438 14.762 55.562z"/>
  <path fill="white" d="m885.59 435.12 204.48-118.05c-16.547-28.598-35.531-55.598-56.652-80.746l-180.82 151.72c12.309 14.652 23.328 30.41 32.988 47.078z"/>
 </g>
</svg>
